<svg version="1.1" xmlns="http://www.w3.org/2000/svg" xmlns:xlink="http://www.w3.org/1999/xlink" width="140.61213" height="133.5" viewBox="0,0,140.61213,133.5"><g transform="translate(-168.27661,-118.59687)"><g data-paper-data="{&quot;isPaintingLayer&quot;:true}" fill-rule="nonzero" stroke-linejoin="miter" stroke-miterlimit="10" stroke-dasharray="" stroke-dashoffset="0" style="mix-blend-mode: normal"><path d="M183.4793,185.62653c0,-32.3352 26.21286,-58.54807 58.54807,-58.54807c32.3352,0 58.54807,26.21286 58.54807,58.54807c0,32.3352 -26.21286,58.54807 -58.54807,58.54807c-32.3352,0 -58.54807,-26.21286 -58.54807,-58.54807z" fill="#f1f1f1" stroke="none" stroke-width="0" stroke-linecap="butt"/><path d="M214.49106,222.25248c0,0 1.19245,-5.96223 1.19245,-12.25941c0,-8.4104 -1.19245,-33.72354 -1.19245,-33.72354c0,0 18.47473,-11.24312 27.78001,-11.24312c8.8513,0 26.75791,11.24312 26.75791,11.24312c0,0 -2.55525,23.88122 -2.55525,32.36074c0,5.84603 0.6814,13.62221 0.6814,13.62221z" fill="#4c433c" stroke="none" stroke-width="NaN" stroke-linecap="butt"/><path d="M256.51065,244.59494v-22h8v22z" data-paper-data="{&quot;index&quot;:null}" fill="#e2ba96" stroke="none" stroke-width="0" stroke-linecap="butt"/><path d="M216.91065,244.19493v-22h8v22z" fill="#e2ba96" stroke="none" stroke-width="0" stroke-linecap="butt"/><path d="M260.91065,213.89493c0,2.4605 -1.13072,33.32316 -1.13072,33.32316l-37.02346,-0.37195c0,0 -0.04582,-31.07141 -0.04582,-33.35121c0,-8.89178 11.08892,-11.1 18.6,-11.1c7.51108,0 19.6,2.60822 19.6,11.5z" fill="#7abfa9" stroke="none" stroke-width="0" stroke-linecap="butt"/><path d="M246.31065,207.69493c0,2.59574 -2.1938,4.7 -4.9,4.7c-2.7062,0 -4.9,-2.10426 -4.9,-4.7c0,-2.59574 2.1938,-4.7 4.9,-4.7c2.7062,0 4.9,2.10426 4.9,4.7z" fill="#e2ba96" stroke="none" stroke-width="0" stroke-linecap="butt"/><path d="M266.71018,223.52018l-11.79907,-0.25048c0,0 -5.33417,-17.06289 -2.68346,-18.42966c1.23195,-0.63522 6.89028,-0.29782 10.0253,2.81449c3.61039,3.58423 4.45724,15.86566 4.45724,15.86566z" fill="#7abfa9" stroke="none" stroke-width="0" stroke-linecap="butt"/><path d="M215.11065,182.19493c0,-14.13849 11.46151,-25.6 25.6,-25.6c14.13849,0 25.6,11.46151 25.6,25.6c0,14.13849 -12.17371,25.70244 -26.3122,25.70244c-14.13849,0 -24.8878,-11.56395 -24.8878,-25.70244z" fill="#e2ba96" stroke="#000000" stroke-width="0" stroke-linecap="butt"/><path d="M219.14608,208.25452c3.13502,-3.1123 8.79334,-3.44971 10.0253,-2.81448c2.65071,1.36677 -2.68346,18.42967 -2.68346,18.42967l-11.79907,0.25047c0,0 0.84685,-12.28143 4.45724,-15.86566z" data-paper-data="{&quot;index&quot;:null}" fill="#7abfa9" stroke="none" stroke-width="0" stroke-linecap="butt"/><path d="M232.71065,199.0952c0,0 0.95023,-1.002 2.50111,-1.69752c1.18729,-0.53245 2.89218,-0.80248 3.79889,-0.80248c1.06412,0 3.14541,-0.03306 4.96994,0.63787c1.84653,0.67902 3.43006,2.06213 3.43006,2.06213" data-paper-data="{&quot;index&quot;:null}" fill="none" stroke="#c7a383" stroke-width="1.5" stroke-linecap="round"/><path d="M168.27661,144.98729z" fill="none" stroke="#e8e8e8" stroke-width="12" stroke-linecap="butt"/><path d="M181.38874,185.34688c0,-33.5513 27.1987,-60.75 60.75,-60.75c33.5513,0 60.75,27.1987 60.75,60.75c0,33.5513 -27.1987,60.75 -60.75,60.75c-33.5513,0 -60.75,-27.1987 -60.75,-60.75z" fill="none" stroke="#ffffff" stroke-width="12" stroke-linecap="butt"/><path d="M227.62511,179.06873l10.05152,4.39967l-9.72176,4.28406" fill="none" stroke="#c7a383" stroke-width="1.5" stroke-linecap="round"/><path d="M252.21577,187.94453l-9.72176,-4.28406l10.05152,-4.39967" data-paper-data="{&quot;index&quot;:null}" fill="none" stroke="#c7a383" stroke-width="1.5" stroke-linecap="round"/><path d="M212.31065,180.79493c0,0 2.30969,-14.25682 7.77686,-20.2566c5.7743,-6.33684 14.86288,-9.5434 20.42315,-9.5434c6.33727,0 16.93655,2.90922 23.47475,10.644c4.6298,5.47712 6.52525,18.55601 6.52525,18.55601c0,0 -9.81095,0.67085 -14.47578,-0.79524c-6.42726,-2.01999 -20.52422,-10.20476 -20.52422,-10.20476c0,0 -5.16231,6.08115 -8.76,7.88c-4.07583,2.03791 -14.44,3.72 -14.44,3.72z" fill="#4c433c" stroke="none" stroke-width="0" stroke-linecap="butt"/></g></g></svg>