<svg version="1.1" xmlns="http://www.w3.org/2000/svg" xmlns:xlink="http://www.w3.org/1999/xlink" width="436.09814" height="238.97158" viewBox="0,0,436.09814,238.97158"><defs><linearGradient x1="358.68442" y1="163.65818" x2="358.68442" y2="180.99151" gradientUnits="userSpaceOnUse" id="color-1"><stop offset="0" stop-color="#e0ebe8"/><stop offset="1" stop-color="#ffffff"/></linearGradient></defs><g transform="translate(-24.96379,-40.72453)"><g data-paper-data="{&quot;isPaintingLayer&quot;:true}" fill-rule="nonzero" stroke-linejoin="miter" stroke-miterlimit="10" stroke-dasharray="" stroke-dashoffset="0" style="mix-blend-mode: normal"><path d="M115.54939,239.29425c0,0 2.32184,-42.24008 29.77891,-76.7442c21.78463,-27.37582 65.00023,-46.5176 95.64539,-46.5176c34.18043,0 74.89866,21.88852 97.52149,52.82775c23.22452,31.76211 27.90282,70.43407 27.90282,70.43407z" fill="#8dc9bc" stroke="none" stroke-width="0" stroke-linecap="butt"/><path d="M24.96379,279.3393c0,0 2.32185,-42.24008 29.77891,-76.74421c21.78463,-27.37582 65.00023,-46.5176 95.6454,-46.5176c34.18042,0 74.89866,21.88851 97.52149,52.82775c23.22452,31.76211 27.90281,70.43407 27.90281,70.43407z" fill="#3e9c87" stroke="none" stroke-width="0" stroke-linecap="butt"/><path d="M210.21332,279.69611c0,0 -2.00313,-15.20898 25.45393,-49.71311c21.78463,-27.37582 70.40645,-50.84258 101.05162,-50.84258c34.18042,0 75.9799,17.56353 98.60273,48.50277c23.22452,31.76211 25.74033,52.05292 25.74033,52.05292z" fill="#64ac9c" stroke="none" stroke-width="0" stroke-linecap="butt"/><path d="M108.3511,187.32485c0,2.02505 -2.91015,3.66666 -6.5,3.66666c-3.58985,0 -6.5,-1.64162 -6.5,-3.66666c0,-2.02505 2.91015,-3.66667 6.5,-3.66667c3.58985,0 6.5,1.64162 6.5,3.66667z" fill="#388d7b" stroke="none" stroke-width="0" stroke-linecap="butt"/><path d="M129.01776,176.32485c0,2.02505 -2.91015,3.66667 -6.5,3.66667c-3.58985,0 -6.5,-1.64162 -6.5,-3.66667c0,-2.02505 2.91015,-3.66666 6.5,-3.66666c3.58985,0 6.5,1.64162 6.5,3.66666z" fill="#388d7b" stroke="none" stroke-width="0" stroke-linecap="butt"/><path d="M157.35108,182.99151c0,2.02505 -2.91015,3.66667 -6.5,3.66667c-3.58985,0 -6.5,-1.64162 -6.5,-3.66667c0,-2.02505 2.91015,-3.66666 6.5,-3.66666c3.58985,0 6.5,1.64162 6.5,3.66666z" fill="#388d7b" stroke="none" stroke-width="0" stroke-linecap="butt"/><g stroke="none" stroke-linecap="butt"><path d="M91.81286,181.20002l9.85714,-31.28571l10.42857,31.28571z" fill="#f6d546" stroke-width="0"/><path d="M106.60272,176.93421c-0.08393,0.99647 -1.0804,0.91254 -1.0804,0.91254l-0.15008,-0.05125c-1.36362,0.24922 -1.71671,0.76553 -2.431,1.81153c0.10364,1.96009 0.09493,3.92765 -0.0713,5.90128l-0.07194,0.85412c0,0 -0.08393,0.99647 -1.0804,0.91254c-0.99647,-0.08393 -0.91254,-1.0804 -0.91254,-1.0804l0.07194,-0.85412c0.19083,-2.26577 0.16577,-4.52457 -0.00163,-6.77306c-0.15697,-0.14075 -0.23858,-0.28875 -0.23858,-0.28875c-0.66444,-1.30621 -2.27811,-2.14487 -3.68782,-2.45435l-0.67031,-0.48366c0,0 -0.64527,-0.76396 0.11869,-1.40922c0.58809,-0.49672 1.10584,-0.15836 1.31306,0.02375c1.01435,0.27701 1.98771,0.71993 2.82723,1.33203c-0.32842,-2.54555 -0.79465,-5.07563 -1.29039,-7.58531c0,0 -0.19305,-0.98119 0.78814,-1.17424c0.98119,-0.19305 1.17424,0.78814 1.17424,0.78814c0.11165,0.56988 0.2218,1.14068 0.32927,1.71235c0.28116,-1.00949 0.62067,-2.01014 1.00614,-3.0335l0.17902,-0.52607c0,0 0.3231,-0.94636 1.26947,-0.62326c0.94636,0.3231 0.62326,1.26947 0.62326,1.26947l-0.2016,0.58877c-0.87428,2.28988 -1.48223,4.43975 -1.6889,6.89357c0,0 -0.03384,0.40182 -0.31371,0.67365c0.11846,0.85086 0.22329,1.70338 0.31072,2.55747c0.57954,-0.47105 1.26711,-0.78878 2.26286,-0.99508l0.70404,0.02069c0,0 0.99647,0.08393 0.91254,1.0804z" fill="#af946c" stroke-width="0.5"/><path d="M113.67001,170.48573l9.85714,-31.28571l10.42857,31.28571z" fill="#217d68" stroke-width="0"/><path d="M117.88619,166.21993c-0.08393,-0.99647 0.91254,-1.0804 0.91254,-1.0804l0.70404,-0.02069c0.99574,0.2063 1.68332,0.52403 2.26286,0.99508c0.08743,-0.85408 0.19227,-1.70661 0.31072,-2.55747c-0.27987,-0.27182 -0.31371,-0.67364 -0.31371,-0.67364c-0.20668,-2.45382 -0.81463,-4.60369 -1.6889,-6.89357l-0.2016,-0.58877c0,0 -0.32311,-0.94637 0.62326,-1.26947c0.94637,-0.3231 1.26947,0.62326 1.26947,0.62326l0.17902,0.52607c0.38547,1.02337 0.72499,2.02401 1.00614,3.0335c0.10747,-0.57167 0.21761,-1.14246 0.32926,-1.71234c0,0 0.19305,-0.9812 1.17424,-0.78814c0.98119,0.19306 0.78814,1.17424 0.78814,1.17424c-0.49575,2.50968 -0.96198,5.03976 -1.2904,7.58531c0.83952,-0.6121 1.81288,-1.055 2.82723,-1.33202c0.20721,-0.18211 0.72497,-0.52047 1.31306,-0.02375c0.76396,0.64526 0.1187,1.40922 0.1187,1.40922l-0.67032,0.48367c-1.40971,0.30948 -3.02338,1.14814 -3.68782,2.45435c0,0 -0.08162,0.14799 -0.23858,0.28875c-0.16741,2.24849 -0.19248,4.50729 -0.00164,6.77306l0.07194,0.85412c0,0 0.08393,0.99647 -0.91254,1.0804c-0.99647,0.08393 -1.0804,-0.91255 -1.0804,-0.91255l-0.07194,-0.85412c-0.16623,-1.97364 -0.17494,-3.94119 -0.0713,-5.90129c-0.71429,-1.046 -1.06738,-1.56232 -2.431,-1.81153l-0.15008,0.05125c0,0 -0.99647,0.08393 -1.0804,-0.91254z" data-paper-data="{&quot;index&quot;:null}" fill="#af946c" stroke-width="0.5"/><path d="M140.95571,177.48574l9.85714,-31.28571l10.42857,31.28571z" fill="#f4a4a4" stroke-width="0"/><path d="M155.74557,173.21993c-0.08393,0.99647 -1.0804,0.91254 -1.0804,0.91254l-0.15008,-0.05125c-1.36362,0.24922 -1.71671,0.76553 -2.431,1.81153c0.10364,1.96009 0.09493,3.92765 -0.0713,5.90128l-0.07194,0.85412c0,0 -0.08393,0.99647 -1.0804,0.91254c-0.99647,-0.08393 -0.91254,-1.0804 -0.91254,-1.0804l0.07194,-0.85412c0.19083,-2.26577 0.16577,-4.52457 -0.00163,-6.77306c-0.15697,-0.14075 -0.23858,-0.28875 -0.23858,-0.28875c-0.66444,-1.30621 -2.27811,-2.14487 -3.68782,-2.45435l-0.67031,-0.48366c0,0 -0.64527,-0.76396 0.11869,-1.40922c0.58809,-0.49672 1.10584,-0.15836 1.31306,0.02375c1.01435,0.27701 1.98771,0.71993 2.82723,1.33203c-0.32842,-2.54555 -0.79465,-5.07563 -1.29039,-7.58531c0,0 -0.19305,-0.98119 0.78814,-1.17424c0.98119,-0.19305 1.17424,0.78814 1.17424,0.78814c0.11165,0.56988 0.2218,1.14068 0.32927,1.71235c0.28116,-1.00949 0.62067,-2.01014 1.00614,-3.0335l0.17902,-0.52607c0,0 0.3231,-0.94636 1.26947,-0.62326c0.94636,0.3231 0.62326,1.26947 0.62326,1.26947l-0.2016,0.58877c-0.87428,2.28988 -1.48223,4.43975 -1.6889,6.89357c0,0 -0.03384,0.40182 -0.31371,0.67365c0.11846,0.85086 0.22329,1.70338 0.31072,2.55747c0.57954,-0.47105 1.26711,-0.78878 2.26286,-0.99508l0.70404,0.02069c0,0 0.99647,0.08393 0.91254,1.0804z" fill="#af946c" stroke-width="0.5"/></g><g stroke="none" stroke-width="0" stroke-linecap="butt"><path d="M339.35109,222.99151v-29h24.33334v29z" fill="#6da0ab"/><path d="M353.35109,222.65818v-11.66667h5.66666v11.66667z" fill="#714750"/><path d="M342.35109,205.99151v-6.66666h6.66666v6.66666z" fill="#c6f7fb"/><path d="M342.35109,218.65818v-6.66666h6.66666v6.66666z" fill="#c6f7fb"/><path d="M353.35109,205.65818v-6.66666h6.66666v6.66666z" fill="#c6f7fb"/><path d="M333.01775,197.32485l18.66667,-16.66666l19,16.66666z" fill="#714750"/><path d="M361.35109,172.32484c0,4.78647 -1.1939,8.66667 -2.66666,8.66667c-1.47276,0 -2.66667,-3.8802 -2.66667,-8.66667c0,-4.78647 1.19391,-8.66666 2.66667,-8.66666c1.47276,0 2.66666,3.88019 2.66666,8.66666z" fill="url(#color-1)"/><path d="M355.01775,190.99151v-12h7.33334v12z" fill="#714750"/></g><g stroke="#ffffff"><path d="M252.33419,102.44907v-38l47.34426,19.93443z" fill="#f4a4a4" stroke-width="0" stroke-linecap="butt"/><path d="M252.33419,79.44907v-38l47.34426,19.93443z" fill="#f6d546" stroke-width="0" stroke-linecap="butt"/><path d="M248.33419,44.97453v101" fill="none" stroke-width="8.5" stroke-linecap="round"/></g></g></g></svg>
